# xmcd
#
# Track frame offsets:
# 150
# 13270
# 27121
# 43243
# 60973
# 76405
# 92888
# 106110
# 120217
# 136877
# 152675
# 170497
#
# Disc length: 2496 seconds
#
#
# Revision: 0
# Processed by: cddbd v1.5.1PL0 Copyright (c) Steve Scherf et al.
# Submitted via: FreeRIP 2.942 
#
DISCID=8a09be0c
DTITLE=BARRETOS_2005 - BARRETOS 50 ANOS DE DODEIO
DYEAR=2005
DGENRE=Sertanejas
TTITLE0=Choradeira
TTITLE1=Gostosa
TTITLE2=Tiro Certo
TTITLE3=Amor Clandestino
TTITLE4=Pinga Ne Mim
TTITLE5=Tô Indo Te Buscar
TTITLE6=Mulher Bôa
TTITLE7=Mineira de Uberaba
TTITLE8=Dia de Formatura
TTITLE9=Eu Cuido Dela
TTITLE10=Bola Viola e Sela
TTITLE11=O Trem Que é Bão
EXTD=
EXTT0=Ataide and Alexandre
EXTT1=Juliano Cezar
EXTT2=Johny Barreto
EXTT3=Marciano
EXTT4=Teodoro and Sampaio Sergio Reis
EXTT5=Guto and Nando
EXTT6=Dois a Um
EXTT7=Pedro Bento 7 Ze da Estrada
EXTT8=Nalva Aguiar
EXTT9=Rafael and Adriel
EXTT10=Diogo and Marcel
EXTT11=Marcelino de Lima Gino and Geno
PLAYORDER=
